<?xml version="1.0" encoding="UTF-8"?>
<svg width="1024px" height="1024px" viewBox="0 0 1024 1024" version="1.1" xmlns="http://www.w3.org/2000/svg" xmlns:xlink="http://www.w3.org/1999/xlink">
    <!-- Generator: Sketch 52.2 (67145) - http://www.bohemiancoding.com/sketch -->
    <title>1024x1024</title>
    <desc>Created with Sketch.</desc>
    <defs>
        <linearGradient x1="102.753153%" y1="-6.26078422%" x2="43.2557471%" y2="102.764104%" id="linearGradient-1">
            <stop stop-color="#95C4D1" offset="0%"></stop>
            <stop stop-color="#95DCF1" offset="3.26300136%"></stop>
            <stop stop-color="#94C3D0" offset="42.0490262%"></stop>
            <stop stop-color="#6B99A6" offset="100%"></stop>
        </linearGradient>
        <linearGradient x1="52.6759753%" y1="100%" x2="59.1970142%" y2="-6.12806689%" id="linearGradient-2">
            <stop stop-color="#C6F2FF" offset="0%"></stop>
            <stop stop-color="#FFFFFF" offset="100%"></stop>
        </linearGradient>
        <linearGradient x1="50%" y1="88.853343%" x2="52.9679179%" y2="-11.9713538%" id="linearGradient-3">
            <stop stop-color="#C6F2FF" offset="0%"></stop>
            <stop stop-color="#FFFFFF" offset="100%"></stop>
        </linearGradient>
        <linearGradient x1="-75.6698722%" y1="130.754266%" x2="110.586642%" y2="-16.0523487%" id="linearGradient-4">
            <stop stop-color="#C6F2FF" offset="0%"></stop>
            <stop stop-color="#FFFFFF" offset="100%"></stop>
        </linearGradient>
        <linearGradient x1="51.3238936%" y1="100%" x2="51.3238936%" y2="-28.7821424%" id="linearGradient-5">
            <stop stop-color="#C6F2FF" offset="0%"></stop>
            <stop stop-color="#FFFFFF" offset="100%"></stop>
        </linearGradient>
        <path d="M31.824,366.844 C23.868,366.844 16.536,363.568 10.92,357.796 C5.304,352.024 2.34,344.38 2.34,336.268 C2.34,328 5.304,320.356 10.92,314.584 C16.536,308.812 23.868,305.536 31.824,305.536 C36.036,305.536 39.936,306.472 43.836,308.188 C47.424,309.904 50.7,312.244 53.508,315.364 L56.472,318.796 L49.608,325.036 L46.488,321.604 C42.588,317.236 37.44,314.896 31.824,314.896 C20.748,314.896 11.7,324.412 11.7,336.268 C11.7,347.968 20.748,357.484 31.824,357.484 C37.44,357.484 42.588,355.144 46.488,350.776 L49.608,347.344 L56.472,353.584 L53.508,357.016 C50.7,360.136 47.424,362.476 43.836,364.192 C39.936,365.908 36.036,366.844 31.824,366.844 Z M84.7315479,357.796 L112.811548,357.796 L112.811548,367.156 L75.3715479,367.156 L75.3715479,305.068 L84.7315479,305.068 L84.7315479,357.796 Z M181.943096,346.408 L190.679096,366.844 L180.539096,366.844 L174.299096,352.648 L144.035096,352.648 L137.795096,366.844 L127.655096,366.844 L154.175096,305.536 L164.315096,305.536 L180.539096,343.288 L181.943096,346.408 Z M148.091096,343.288 L170.399096,343.288 L159.323096,317.236 L148.091096,343.288 Z M217.690644,348.124 L217.690644,367 L208.330644,367 L208.330644,305.068 L219.094644,305.068 C232.354644,305.068 239.530644,309.28 243.274644,312.712 C246.862644,316.3 249.046644,320.98 249.046644,326.128 C248.890644,332.68 244.990644,338.608 237.814644,342.664 C237.658644,342.82 237.502644,342.976 237.346644,342.976 L257.470644,367 L245.302644,367 L228.142644,346.72 C224.710644,347.5 221.122644,347.968 217.690644,348.124 Z M217.690644,314.428 L217.690644,338.764 C223.150644,338.608 228.922644,337.048 233.134644,334.552 C240.778644,330.184 241.558644,324.412 236.722644,319.576 C233.134644,315.988 225.646644,313.96 217.690644,314.428 Z M286.042192,367.312 L276.682192,367.312 L276.682192,305.224 L286.042192,305.224 L286.042192,367.312 Z M349.40174,305.536 L349.40174,314.896 L331.92974,314.896 L331.92974,367.312 L322.56974,367.312 L322.56974,314.896 L304.78574,314.896 L304.78574,305.536 L349.40174,305.536 Z M382.809287,340.168 L382.185287,339.232 L356.913287,305.38 L368.613287,305.38 L387.957287,331.276 L407.457287,305.38 L419.157287,305.38 L393.885287,339.232 L393.105287,340.324 L392.793287,341.728 L392.793287,367 L383.433287,367 L383.433287,341.572 L382.809287,340.168 Z" id="path-6"></path>
    </defs>
    <g id="1024x1024" stroke="none" stroke-width="1" fill="none" fill-rule="evenodd">
        <rect id="Rectangle" fill="url(#linearGradient-1)" x="0" y="0" width="1024" height="1024"></rect>
        <g id="Group-2" transform="translate(299.000000, 309.000000)">
            <g id="Group" transform="translate(72.000000, 0.000000)" stroke-width="9">
                <path d="M140.589839,247 C184.376208,247 217.564931,214.038212 203.879712,152.20436 C199.16945,130.92201 178.072825,94.8538896 140.589839,44 C103.755089,95.0875877 83.2557937,131.155708 79.0919527,152.20436 C68.4920294,205.788083 99.5801166,247 140.589839,247 Z" id="Path-15" stroke="url(#linearGradient-2)" stroke-linecap="round" stroke-linejoin="round"></path>
                <path d="M283,120 C256.454524,124.502146 229.139421,132.625524 201.05469,144.370134 C167.759051,158.293868 133.071545,197.404768 133.608516,213.191137 C133.750945,217.37837 136.371562,225.810065 142.153666,225.810065 C148.157812,225.810065 150.585221,217.294018 150.375566,212.971349 C149.622125,197.436918 114.81158,160.0499 89.5559569,144.370134 C68.0337259,131.008217 38.1817403,122.884839 0,120 C4.8446274,209.081291 52.2291828,252.380988 142.153666,249.899089 C232.07815,247.41719 279.026928,204.117494 283,120 Z" id="Path-16" stroke="url(#linearGradient-3)" stroke-linecap="round" stroke-linejoin="round"></path>
                <ellipse id="Oval" stroke="url(#linearGradient-4)" cx="139" cy="9.5" rx="10" ry="9.5"></ellipse>
            </g>
            <g id="clarity">
                <use fill="#FFFFFF" xlink:href="#path-6"></use>
                <use fill="url(#linearGradient-5)" xlink:href="#path-6"></use>
            </g>
        </g>
    </g>
</svg>